HIERARCHY
ROOT pelvis
{
  OFFSET 0 100 0
  CHANNELS 6 Xposition Yposition Zposition Zrotation Xrotation Yrotation
  JOINT pelvis_right_femur
  {
    OFFSET -10.78128 -3.44521 -0.5502486
    CHANNELS 3 Zrotation Xrotation Yrotation
    JOINT right_femur_tibia
    {
      OFFSET -0.8047443 -44.0398 -0.1307829
      CHANNELS 3 Zrotation Xrotation Yrotation
      JOINT right_tibia_foot
      {
        OFFSET 3.006224 -47.83518 -5
        CHANNELS 3 Zrotation Xrotation Yrotation
        End Site
        {
          OFFSET 0 -5 15
        }
      }
    }
  }
  JOINT pelvis_left_femur
  {
    OFFSET 10.78128 -3.44521 -0.5502486
    CHANNELS 3 Zrotation Xrotation Yrotation
    JOINT left_femur_tibia
    {
      OFFSET 0.8047443 -44.0398 -0.1307829
      CHANNELS 3 Zrotation Xrotation Yrotation
      JOINT left_tibia_foot
      {
        OFFSET -4.370144 -48.10324 -4.275266
        CHANNELS 3 Zrotation Xrotation Yrotation
        End Site
        {
          OFFSET 0 -5 15
        }
      }
    }
  }
  JOINT pelvis_spine1
  {
    OFFSET 0 6.468898 -3.129235
    CHANNELS 3 Zrotation Xrotation Yrotation
    JOINT spine1
    {
      OFFSET 0 23.15396 4.99043
      CHANNELS 3 Zrotation Xrotation Yrotation
      JOINT spine2
      {
        OFFSET 0 20.79997 -5.064912
        CHANNELS 3 Zrotation Xrotation Yrotation
        JOINT neck
        {
          OFFSET 0 14.38658 9.616178
          CHANNELS 3 Zrotation Xrotation Yrotation
          End Site
          {
            OFFSET 0 20 0
          }
        }
      }
      JOINT right_manubrium
      {
        OFFSET -5.722621 16.35077 3.967754
        CHANNELS 3 Zrotation Xrotation Yrotation
        JOINT right_clavicle
        {
          OFFSET -13.16364 1.694482 -4.693211
          CHANNELS 3 Zrotation Xrotation Yrotation
          JOINT right_humerus
          {
            OFFSET -28.5034 -0.3100689 -2.792744
            CHANNELS 3 Zrotation Xrotation Yrotation
            JOINT right_radius
            {
              OFFSET -25.15693 0.02248979 -1.271978
              CHANNELS 3 Zrotation Xrotation Yrotation
              End Site
              {
                OFFSET -15 0 0
              }
            }
          }
        }
      }
      JOINT left_manubrium
      {
        OFFSET 5.722621 16.35077 3.967754
        CHANNELS 3 Zrotation Xrotation Yrotation
        JOINT left_clavicle
        {
          OFFSET 13.16364 1.694482 -4.693211
          CHANNELS 3 Zrotation Xrotation Yrotation
          JOINT left_humerus
          {
            OFFSET 29.39168 -1.063119 -2.237045
            CHANNELS 3 Zrotation Xrotation Yrotation
            JOINT left_radius
            {
              OFFSET 24.59957 -0.9528479 0.9047498
              CHANNELS 3 Zrotation Xrotation Yrotation
              End Site
              {
                OFFSET 15 -0 -0
              }
            }
          }
        }
      }
    }
  }
}
MOTION
Frames: 11
Frame Time: 0.0416666666667
-2070.535 146.4073 2614.978 -18.7552 -1.366561 -93.04313 0.5431287 -2.785255 -12.27943 -0 6.003724 -0 -12.48013 24.2083 -0.2673692 -4.752442 14.68738 -6.154004 -0 15.48122 -0 -5.002613 -16.49332 9.548108 0.4167535 -0.1578838 3.456824 -0.7523227 15.21432 -2.528071 4.836062 26.39555 0.8319749 -1.382902 -19.28812 6.127789 -14.85217 -26.30713 9.108204 108.7614 -6.377996 -13.24936 -0 0 7.785295 -29.38179 5.419329 15.87045 0.1704907 -23.25394 -18.63353 -89.59254 23.61694 18.84824 0 0 -23.52394 -10.24971 10.79382 26.40821
-2078.479 146.3213 2615.309 -18.7598 -1.299016 -93.24211 0.5431052 -2.785367 -12.27946 -0 6.003642 -0 -12.48013 24.20831 -0.2673629 -4.752458 14.68743 -6.153981 -0 15.48121 -0 -5.002562 -16.49334 9.548096 0.4167408 -0.1578891 3.456822 -0.7523165 15.21433 -2.52809 4.836049 26.39555 0.8319862 -1.382896 -19.28812 6.12778 -14.85215 -26.30711 9.108219 108.7614 -6.377948 -13.24941 -0 0 7.785228 -29.3818 5.41933 15.87045 0.1704811 -23.25399 -18.63355 -89.59246 23.61692 18.84815 0 0 -23.52409 -10.24967 10.79383 26.40817
-2086.424 146.2353 2615.61 -18.76418 -1.231455 -93.44108 0.5430864 -2.785472 -12.27948 -0 6.003556 -0 -12.48013 24.20831 -0.2673605 -4.75247 14.68747 -6.153958 -0 15.48121 -0 -5.002514 -16.49336 9.548087 0.4167295 -0.157896 3.456821 -0.7523104 15.21434 -2.528109 4.836037 26.39555 0.8319947 -1.382891 -19.28811 6.12777 -14.85213 -26.3071 9.108234 108.7614 -6.37791 -13.24946 -0 0 7.785165 -29.38181 5.419334 15.87046 0.1704727 -23.25403 -18.63357 -89.59238 23.61689 18.84806 0 0 -23.52423 -10.24964 10.79384 26.40813
-2094.37 146.1494 2615.882 -18.76832 -1.163877 -93.64004 0.5430723 -2.785569 -12.2795 -0 6.003468 -0 -12.48013 24.20831 -0.2673619 -4.75248 14.68752 -6.153934 -0 15.48122 -0 -5.002469 -16.49337 9.54808 0.41672 -0.1579044 3.456819 -0.7523047 15.21434 -2.528127 4.836027 26.39555 0.8320002 -1.382887 -19.2881 6.12776 -14.85212 -26.30708 9.10825 108.7614 -6.37788 -13.24951 -0 0 7.785109 -29.38182 5.419341 15.87046 0.1704656 -23.25407 -18.63359 -89.59231 23.61686 18.84798 0 0 -23.52436 -10.24961 10.79385 26.40809
-2102.317 146.0634 2616.125 -18.77223 -1.096284 -93.839 0.5430632 -2.785656 -12.27952 -0 6.003379 -0 -12.48013 24.20831 -0.2673669 -4.752487 14.68756 -6.153911 -0 15.48123 -0 -5.002427 -16.49339 9.548076 0.4167122 -0.1579141 3.456818 -0.7522993 15.21435 -2.528145 4.83602 26.39555 0.832003 -1.382883 -19.28809 6.127749 -14.8521 -26.30707 9.108264 108.7614 -6.37786 -13.24955 -0 0 7.785058 -29.38184 5.419351 15.87046 0.17046 -23.25411 -18.6336 -89.59225 23.61683 18.84791 0 0 -23.52447 -10.24958 10.79388 26.40805
-2110.264 145.9774 2616.338 -18.77591 -1.028675 -94.03794 0.5430588 -2.785732 -12.27954 -0 6.003293 -0 -12.48012 24.20831 -0.2673752 -4.752492 14.68759 -6.153889 -0 15.48126 -0 -5.00239 -16.4934 9.548075 0.4167062 -0.1579247 3.456816 -0.7522943 15.21436 -2.528162 4.836014 26.39555 0.832003 -1.38288 -19.28808 6.127738 -14.85209 -26.30706 9.108277 108.7614 -6.37785 -13.24959 -0 0 7.785015 -29.38186 5.419364 15.87046 0.1704558 -23.25415 -18.63362 -89.5922 23.6168 18.84785 0 0 -23.52457 -10.24955 10.79391 26.40802
-2118.213 145.8914 2616.523 -18.77936 -0.9610512 -94.23688 0.5430591 -2.785796 -12.27955 -0 6.00321 -0 -12.48011 24.2083 -0.2673865 -4.752493 14.68763 -6.153867 -0 15.48129 -0 -5.002358 -16.49341 9.548077 0.4167021 -0.1579361 3.456814 -0.7522899 15.21437 -2.528177 4.83601 26.39555 0.8320003 -1.382879 -19.28806 6.127727 -14.85208 -26.30705 9.10829 108.7614 -6.377848 -13.24962 -0 0 7.78498 -29.38188 5.419378 15.87046 0.170453 -23.25418 -18.63363 -89.59215 23.61677 18.84779 0 0 -23.52465 -10.24953 10.79394 26.40798
-2126.161 145.8054 2616.678 -18.78258 -0.8934135 -94.43581 0.5430638 -2.785846 -12.27956 -0 6.003132 -0 -12.48011 24.2083 -0.2674004 -4.752492 14.68765 -6.153848 -0 15.48132 -0 -5.002332 -16.49341 9.548081 0.4166999 -0.1579479 3.456812 -0.7522862 15.21438 -2.528191 4.836008 26.39555 0.8319952 -1.382878 -19.28804 6.127716 -14.85208 -26.30705 9.108301 108.7614 -6.377856 -13.24964 -0 0 7.784953 -29.3819 5.419394 15.87046 0.1704517 -23.25421 -18.63365 -89.59212 23.61675 18.84775 0 0 -23.52471 -10.24951 10.79397 26.40795
-2134.111 145.7194 2616.805 -18.78557 -0.8257622 -94.63474 0.5430727 -2.785883 -12.27957 -0 6.00306 -0 -12.4801 24.20829 -0.2674165 -4.752489 14.68768 -6.15383 -0 15.48136 -0 -5.00231 -16.49342 9.548087 0.4166994 -0.1579599 3.45681 -0.752283 15.21439 -2.528203 4.836008 26.39555 0.8319879 -1.382878 -19.28802 6.127706 -14.85207 -26.30704 9.10831 108.7614 -6.377872 -13.24966 -0 0 7.784934 -29.38192 5.419411 15.87046 0.1704518 -23.25424 -18.63366 -89.5921 23.61672 18.84772 0 0 -23.52475 -10.2495 10.79401 26.40792
-2142.061 145.6334 2616.902 -18.78832 -0.7580982 -94.83367 0.5430852 -2.785907 -12.27958 -0 6.002995 -0 -12.48009 24.20828 -0.2674343 -4.752483 14.68769 -6.153814 -0 15.4814 -0 -5.002295 -16.49342 9.548095 0.4167007 -0.1579718 3.456808 -0.7522806 15.2144 -2.528213 4.83601 26.39555 0.8319786 -1.382878 -19.288 6.127697 -14.85207 -26.30704 9.108318 108.7614 -6.377895 -13.24968 -0 0 7.784924 -29.38194 5.419429 15.87046 0.1704532 -23.25426 -18.63367 -89.59208 23.61669 18.8477 0 0 -23.52478 -10.24949 10.79405 26.40789
-2150.011 145.5474 2616.97 -18.79085 -0.6904222 -95.03259 0.5431011 -2.785917 -12.27958 -0 6.002939 -0 -12.48007 24.20827 -0.2674534 -4.752475 14.6877 -6.153801 -0 15.48145 -0 -5.002286 -16.49341 9.548105 0.4167037 -0.1579835 3.456806 -0.7522789 15.21441 -2.528221 4.836013 26.39555 0.8319677 -1.38288 -19.28798 6.127688 -14.85208 -26.30704 9.108324 108.7614 -6.377925 -13.24969 -0 0 7.784921 -29.38196 5.419448 15.87046 0.1704559 -23.25428 -18.63367 -89.59208 23.61667 18.84769 0 0 -23.52478 -10.24949 10.7941 26.40787
